<svg xmlns="http://www.w3.org/2000/svg" xmlns:xlink="http://www.w3.org/1999/xlink" data-name="Layer 1" width="717.6700439453125" height="453.9643249511719" style=""><rect id="backgroundrect" width="100%" height="100%" x="0" y="0" fill="none" stroke="none"/><g class="currentLayer" style=""><title>Layer 1</title><path d="M271.9864033886719,71.47655310058593 a3.82674,3.82674 0 0 1 -4.314,1.25745 a5.82854,5.82854 0 0 1 -0.6787000000000002,-0.24764000000000003 a28.82552,28.82552 0 0 0 -0.36725,-7.98934 a21.36236,21.36236 0 0 1 -1.6396600000000001,6.57017 a8.91079,8.91079 0 0 1 -1.7599300000000002,-2.51274 a22.42528,22.42528 0 0 1 -1.6030700000000002,-6.0463000000000005 c-1.20439,-7.0881 -2.39281,-14.46206 -0.42756000000000005,-21.389 c2.87885,-10.119 11.95723,-17.393440000000002 15.74893,-27.21118 l1.8681100000000002,-1.677 c3.1977700000000002,5.44543 3.33934,12.212 2.03576,18.38674 c-1.29657,6.187 -3.90949,11.99371 -5.97512,17.96023 s-3.61313,12.31309 -2.6548000000000003,18.55641 C272.4394333886719,68.60438310058595 272.77545338867185,70.22011310058593 271.9864033886719,71.47655310058593 z" fill="#2f2e41" id="svg_1"/><polygon points="230.469 157.098 218.295 212.779 271.469 230.098 263.65 157.098 230.469 157.098" fill="#ffb6b6" id="svg_2"/><path d="M605.6990333886719,452.5976731005859 h24.09571 V342.1289231005859 A107.65288,107.65288 0 0 0 522.2639833886719,234.59767310058595 H298.3255033886719 A107.65288,107.65288 0 0 0 190.79474338867186,342.1289231005859 V452.5976731005859 h24.0957 V377.1289231005859 A108.65356,108.65356 0 0 1 323.4212233886718,268.59767310058595 H497.1682733886719 A108.65356,108.65356 0 0 1 605.6990333886719,377.1289231005859 z" fill="#e6e6e6" id="svg_3"/><path d="M312.8942233886719,394.8061031005859 l-25.68043,-7.775 a88.4837,88.4837 0 0 1 -2.50888,-20.963 a8.39912,8.39912 0 0 1 13.815,-6.35513 c13.77338,11.81381 33.94829,18.11782 46.96791,31.58028 a52.07341,52.07341 0 0 1 13.888,42.946 l5.621,18.18083 a87.2586,87.2586 0 0 1 -63.97667,-35.28461 a84.28716,84.28716 0 0 1 -10.12173,-18.565 C301.79009338867183,397.3349631005859 312.8942233886719,394.8061031005859 312.8942233886719,394.8061031005859 z" fill="#f2f2f2" id="svg_4"/><path d="M379.82322338867186,424.5792031005859 l13.09791,-3.96554 q0.025330000000000005,-0.10428000000000001 0.05020000000000001,-0.20870000000000002 a8.409,8.409 0 0 0 -12.48265,-9.09359 c-5.94563,3.532 -12.54779,6.57335 -17.28929,11.47613 a26.55922,26.55922 0 0 0 -7.08337,21.904 l-2.86689,9.27285 a44.50485,44.50485 0 0 0 32.6303,-17.99636 a42.98864,42.98864 0 0 0 5.16243,-9.46881 C385.48668338867185,425.8690131005859 379.82322338867186,424.5792031005859 379.82322338867186,424.5792031005859 z" fill="#f2f2f2" id="svg_5"/><path d="M485.84859338867193,153.12990310058592 H434.84300338867183 a2.72143,2.72143 0 0 0 -2.71731,2.72433 v80.57381 h56.44722 V155.85423310058593 A2.7229,2.7229 0 0 0 485.84859338867193,153.12990310058592 zm-25.3312,45.78106 a6.05117,6.05117 0 0 1 -6.02292,-6.02289 v-9.29349 a6.02291,6.02291 0 0 1 12.04581,0 v9.29349 a6.05109,6.05109 0 0 1 -6.02289,6.02289 z" fill="#3f3d56" id="svg_6"/><path d="M570.3092733886718,27.38536310058595 H352.28022338867186 a7.07769,7.07769 0 0 0 -7.06643,7.06638 V181.57865310058594 a7.07318,7.07318 0 0 0 7.06643,7.06638 h218.029 a7.07318,7.07318 0 0 0 7.06643,-7.06638 V34.45174310058593 A7.07769,7.07769 0 0 0 570.3092733886718,27.38536310058595 z" fill="#3f3d56" id="svg_7"/><path d="M568.4893533886719,32.489303100585914 H354.1018433886719 a3.78733,3.78733 0 0 0 -3.7791,3.787 V179.75649310058594 a3.78562,3.78562 0 0 0 3.7791,3.7791 H568.4893533886719 a3.78562,3.78562 0 0 0 3.7791,-3.7791 V36.27627310058591 A3.78733,3.78733 0 0 0 568.4893533886719,32.489303100585914 z" fill="#fff" id="svg_8" class=""/><path d="M431.9506033886719,233.85080310058595 v7.77377 a1.52285,1.52285 0 0 0 1.51976,1.51972 h53.75792 a1.52739,1.52739 0 0 0 1.51972,-1.51972 V233.85080310058595 z" fill="#3f3d56" id="svg_9"/><path d="M526.7303033886719,245.84935310058592 H399.1814233886719 a2.34634,2.34634 0 0 1 -2.2960000000000003,-2.82966 l1.9791599999999998,-9.39973 a2.35648,2.35648 0 0 1 2.29564,-1.86291 H524.7515333886719 a2.35648,2.35648 0 0 1 2.29565,1.86291 l1.97915,9.39973 a2.34634,2.34634 0 0 1 -2.2960000000000003,2.82966 z" fill="#3f3d56" id="svg_10"/><rect x="402.0659484863281" y="233.44964599609375" width="3.928380012512207" height="2.357029914855957" rx="0.4881899952888489" fill="#e6e6e6" id="svg_11"/><rect x="409.9226989746094" y="233.44964599609375" width="3.928380012512207" height="2.357029914855957" rx="0.4881899952888489" fill="#e6e6e6" id="svg_12"/><rect x="417.77947998046875" y="233.44964599609375" width="3.928380012512207" height="2.357029914855957" rx="0.4881899952888489" fill="#e6e6e6" id="svg_13"/><rect x="425.63623046875" y="233.44964599609375" width="3.928380012512207" height="2.357029914855957" rx="0.4881899952888489" fill="#e6e6e6" id="svg_14"/><rect x="433.4930114746094" y="233.44964599609375" width="3.928380012512207" height="2.357029914855957" rx="0.4881899952888489" fill="#e6e6e6" id="svg_15"/><rect x="441.3497619628906" y="233.44964599609375" width="3.928380012512207" height="2.357029914855957" rx="0.4881899952888489" fill="#e6e6e6" id="svg_16"/><rect x="449.2065124511719" y="233.44964599609375" width="3.928380012512207" height="2.357029914855957" rx="0.4881899952888489" fill="#e6e6e6" id="svg_17"/><rect x="457.06329345703125" y="233.44964599609375" width="3.928380012512207" height="2.357029914855957" rx="0.4881899952888489" fill="#e6e6e6" id="svg_18"/><rect x="464.9200439453125" y="233.44964599609375" width="3.928380012512207" height="2.357029914855957" rx="0.4881899952888489" fill="#e6e6e6" id="svg_19"/><rect x="472.7768249511719" y="233.44964599609375" width="3.928380012512207" height="2.357029914855957" rx="0.4881899952888489" fill="#e6e6e6" id="svg_20"/><rect x="480.6335754394531" y="233.44964599609375" width="3.928380012512207" height="2.357029914855957" rx="0.4881899952888489" fill="#e6e6e6" id="svg_21"/><rect x="488.4903259277344" y="233.44964599609375" width="3.928380012512207" height="2.357029914855957" rx="0.4881899952888489" fill="#e6e6e6" id="svg_22"/><rect x="496.34710693359375" y="233.44964599609375" width="3.928380012512207" height="2.357029914855957" rx="0.4881899952888489" fill="#e6e6e6" id="svg_23"/><rect x="504.203857421875" y="233.44964599609375" width="3.928380012512207" height="2.357029914855957" rx="0.4881899952888489" fill="#e6e6e6" id="svg_24"/><rect x="512.0606689453125" y="233.44964599609375" width="3.928380012512207" height="2.357029914855957" rx="0.4881899952888489" fill="#e6e6e6" id="svg_25"/><rect x="519.9174194335938" y="233.44964599609375" width="3.928380012512207" height="2.357029914855957" rx="0.4881899952888489" fill="#e6e6e6" id="svg_26"/><rect x="401.9731140136719" y="237.37802124023438" width="3.928380012512207" height="2.357029914855957" rx="0.4881899952888489" fill="#e6e6e6" id="svg_27"/><rect x="409.8298645019531" y="237.37802124023438" width="3.928380012512207" height="2.357029914855957" rx="0.4881899952888489" fill="#e6e6e6" id="svg_28"/><rect x="417.6866149902344" y="237.37802124023438" width="3.928380012512207" height="2.357029914855957" rx="0.4881899952888489" fill="#e6e6e6" id="svg_29"/><rect x="425.54339599609375" y="237.37802124023438" width="3.928380012512207" height="2.357029914855957" rx="0.4881899952888489" fill="#e6e6e6" id="svg_30"/><rect x="433.400146484375" y="237.37802124023438" width="3.928380012512207" height="2.357029914855957" rx="0.4881899952888489" fill="#e6e6e6" id="svg_31"/><rect x="441.2569274902344" y="237.37802124023438" width="3.928380012512207" height="2.357029914855957" rx="0.4881899952888489" fill="#e6e6e6" id="svg_32"/><rect x="449.1136779785156" y="237.37802124023438" width="3.928380012512207" height="2.357029914855957" rx="0.4881899952888489" fill="#e6e6e6" id="svg_33"/><rect x="456.970458984375" y="237.37802124023438" width="3.928380012512207" height="2.357029914855957" rx="0.4881899952888489" fill="#e6e6e6" id="svg_34"/><rect x="464.82720947265625" y="237.37802124023438" width="3.928380012512207" height="2.357029914855957" rx="0.4881899952888489" fill="#e6e6e6" id="svg_35"/><rect x="472.6839904785156" y="237.37802124023438" width="3.928380012512207" height="2.357029914855957" rx="0.4881899952888489" fill="#e6e6e6" id="svg_36"/><rect x="480.5407409667969" y="237.37802124023438" width="3.928380012512207" height="2.357029914855957" rx="0.4881899952888489" fill="#e6e6e6" id="svg_37"/><rect x="488.39752197265625" y="237.37802124023438" width="3.928380012512207" height="2.357029914855957" rx="0.4881899952888489" fill="#e6e6e6" id="svg_38"/><rect x="496.2542724609375" y="237.37802124023438" width="3.928380012512207" height="2.357029914855957" rx="0.4881899952888489" fill="#e6e6e6" id="svg_39"/><rect x="504.11102294921875" y="237.37802124023438" width="3.928380012512207" height="2.357029914855957" rx="0.4881899952888489" fill="#e6e6e6" id="svg_40"/><rect x="511.9678039550781" y="237.37802124023438" width="3.928380012512207" height="2.357029914855957" rx="0.4881899952888489" fill="#e6e6e6" id="svg_41"/><rect x="519.8245849609375" y="237.37802124023438" width="3.928380012512207" height="2.357029914855957" rx="0.4881899952888489" fill="#e6e6e6" id="svg_42"/><rect x="439.6855773925781" y="242.0920867919922" width="31.427059173583984" height="2.357029914855957" rx="0.4881899952888489" fill="#e6e6e6" id="svg_43"/><path d="M536.5231133886718,68.50765310058591 v75.52 a19.07267,19.07267 0 0 1 -19.07,19.07 h-94.52 a19.08094,19.08094 0 0 1 -17.51,-11.49 a17.9844,17.9844 0 0 1 -1.13,-3.51 a17.36726,17.36726 0 0 0 6.3,1.17 h94.52 a17.60458,17.60458 0 0 0 17.58,-17.58 v-75.52 a17.36787,17.36787 0 0 0 -1.17,-6.3 a17.98805,17.98805 0 0 1 3.51,1.13 A19.08093,19.08093 0 0 1 536.5231133886718,68.50765310058591 z" fill="#f2f2f2" id="svg_44" class=""/><polygon points="183.897 368.973 174.522 374.778 146.903 340.828 160.739 332.262 183.897 368.973" fill="#ffb6b6" id="svg_45"/><path d="M191.9906533886719,381.0989731005859 l-7.54133,3.36653 l-4.5245,-6.519 l-0.26914,8.65893 l-20.0014,8.92883 a4.9238,4.9238 0 0 1 -6.21365,-7.05552 l11.04809,-18.1615 l-3.21326,-7.198 l17.248,-6.49708 z" fill="#2f2e41" id="svg_46"/><path d="M157.63477338867187,362.44199310058593 l15.8338,-15.34432 c-11.7637,-29.02906 -12.70376,-47.02215 -29.01206,-82.13088 c38.693,7.91409 66.35622,7.433 98.35619,0.3374200000000001 c10.83323,-2.3646000000000003 38.78551,-23.955940000000002 36.48735,-35.02685 q-0.16112,-0.77624 -0.38070000000000004,-1.538 c-3.43482,-11.7114 -1.01609,-29.64574 -8.45078,-42.64173 c-13.75489,-5.18582 -34.652680000000004,12.32556 -51,23 c-7.88255,5.14713 -2.11233,12.161200000000001 -8,14 l-22.569,7.32613 l-55.3725,-8.943 a20.51148,20.51148 0 0 0 -23.37624,17.35929 q-0.14055,0.9018 -0.20361,1.81341 c2.54779,14.10343 5.20366,27.83673 8.063,40.87333 c0.923,4.20807 -0.6352000000000001,12.27539 2.8357,12.39545 s2.07272,8.46395 3.15368,12.54322 C130.6544233886719,331.579083100586 134.8627033886719,343.732633100586 157.63477338867187,362.44199310058593 z" fill="#2f2e41" id="svg_47"/><polygon points="127.329 429.745 117.562 424.647 133.015 383.711 147.43 391.235 127.329 429.745" fill="#ffb6b6" id="svg_48"/><path d="M125.70114338867188,399.1836331005859 l15.661200000000001,10.78289 c19.19456,-27.75961 31.65753,-64.854 40.93905,-106.36 c36.13851,-15.76472 67.76063,-33.80089 89.79648,-57.99314 a20.9147,20.9147 0 0 0 -1.20931,-29.095 q-0.5784,-0.5422 -1.196,-1.03885 c-9.54471,-7.60285 -30.74283,-3.22816 -44.29181,-9.58275 l-24.204,33.49961 l2.78211,7.80252 l-8.41994,4.099 l-7.1092,3.4608600000000003 l-8.13813,3.9617500000000003 L153.63347338867186,271.7078031005859 a20.4837,20.4837 0 0 0 -9.089,27.62925 q0.40434000000000003,0.81821 0.87758,1.59992 l-9.908,49.36015 s2.72631,8.59307 -1.56348,7.789 s-1.95215,9.72532 -1.95215,9.72532 z" fill="#2f2e41" id="svg_49"/><path d="M121.41422338867187,452.30536310058596 l-7.32146,-3.8211500000000003 l2.30077,-7.5944 l-6.9546600000000005,5.16548 l-19.41828,-10.13462 a4.9238,4.9238 0 0 1 1.67253,-9.25162 l21.09632,-2.61639 l3.64718,-6.98813 l15.80243,9.48616 z" fill="#2f2e41" id="svg_50"/><path d="M334.8916633886719,237.70345310058593 l-11.42309,-27.60578 l-9,5 l5.43524,28.0821 a10.0012,10.0012 0 1 0 14.98785,-5.47632 z" fill="#ffb6b6" id="svg_51"/><path d="M143.20795338867185,19.40691310058594 l17.381,24.29955 l7.633,-6.90918 L156.56522338867188,10.677053100585937 a10.0012,10.0012 0 1 0 -13.35723,8.72986 z" fill="#ffb6b6" id="svg_52"/><path d="M221.6969033886719,173.42085310058593 c-11.2735,17.48627 30.02795,55.58585 51.77167,46.67682 c3.80743,-1.56 16.90438,-6.71266 7.95219,-13.85633 s1.03792,0.8510000000000001 1.274,-3.79932 c0.15787,-3.109 -2.24924,-9.9292 0.26227,-9.63677 s3.9530000000000003,-6.97133 -1.51673,-8.82157 a10.61794,10.61794 0 0 1 -7,-9 c-0.523,-19.16651 5.96782,-39.17735 5.96782,-39.17735 l26.49793,67.73493 s-0.19573000000000004,11.71851 3.18337,8.13746 s3.13322,8.00923 3.13322,8.00923 s5.02458,3.5066100000000002 2.13523,5.45816 s3.11066,7.95156 3.11066,7.95156 l14,-1 s-0.21919000000000002,-10.4 -2.6096000000000004,-12.7 s-1.21623,-5.9190000000000005 -1.21623,-5.9190000000000005 s-4.92825,-4.58417 -2.05121,-9.98259 s-20.951,-101.96148 -20.951,-101.96148 a25.7199,25.7199 0 0 0 -18.366,-19.62039 l-15.12093,-4.16334 l-2.685,-10.6532 H248.17722338867185 l-3.70866,7 l-34,-3 s-33.64257,-30.60991 -32,-33 s-3.57255,-7.98576 -3.57255,-7.98576 s-4.45387,-1.45771 -1.94066,-2.236 s-2.23723,-2.57768 -2.23723,-2.57768 s-4.39964,-1.1561 -2.3246,-2.6783400000000004 s-6.925,-2.52224 -6.925,-2.52224 l-11.67717,9.52756 l2.3601,4.00191 s-1.439,5.44938 0.43900000000000006,3.46 s2.23156,3.78393 2.23156,3.78393 s0.9590900000000001,6.32194 6.64648,8.22664 s10,20 10,20 l48,40 c-7.31055,8.39115 -5.5705,17.166 0.9056400000000001,26.14173 z" fill="#ed8936" id="svg_53" class="" fill-opacity="1"/><circle cx="258.34259033203125" cy="36.96382141113281" r="23.055700302124023" fill="#ffb6b6" id="svg_54"/><path d="M278.46857338867187,30.09767310058595 c-0.5900000000000001,0.17 -9.25,1.3 -13,2 c-3.68,0.6900000000000002 -4.32,-4 -7.33,-3.12 a0.1266,0.1266 0 0 0 -0.010000000000000002,-0.06000000000000001 a28.34378,28.34378 0 0 0 -2.37,-7.17 a21.17806,21.17806 0 0 1 0.17005,6.6 a0.98419,0.98419 0 0 1 -0.020000000000000004,0.17 c-0.010000000000000002,0.1 -0.030000000000000006,0.19000000000000003 -0.04000000000000001,0.29000000000000004 c-3.18,-1.4 -5.2,-0.15000000000000002 -7.4,0.29000000000000004 c-2.46,0.49000000000000005 -4.38,1.57 -3,10 c2.83,17.34 17.55,23.53 15,35 c-0.5,2.27 -1.7600000000000002,5.11 -3.34,5.82 a28.34378,28.34378 0 0 0 -2.37,-7.17 a21.17806,21.17806 0 0 1 0.17005,6.6 c-2.45,-2.6500000000000004 -4.22,-11.91 -12.46,-19.25 c-2.03,-1.8 -12.2,-12.48 -13.42,-15 a32.13615,32.13615 0 0 1 0.54,6.11 a29.41586,29.41586 0 0 1 -0.28,4.1 a1.15145,1.15145 0 0 1 -0.030000000000000006,0.26 c-0.010000000000000002,0.16000000000000003 -0.04000000000000001,0.30000000000000004 -0.06000000000000001,0.45 c-0.020000000000000004,0.17 -0.05000000000000001,0.33000000000000007 -0.08000000000000002,0.5 c-3.33,-0.48000000000000004 -6.28,-1.06 -7.67,-2.42 c-6.76,-6.58 1.49,-19.4 6,-31 c6.45,-16.61 25.18,-18.82 27,-19 c8.02,-0.81 21.57,0.91 26,10 C283.56854338867186,20.467673100585955 281.5885633886719,29.19765310058591 278.46857338867187,30.09767310058595 z" fill="#2f2e41" id="svg_55" class=""/><path d="M229.85359338867187,33.84694310058592 l16.70111,-25.98028 a25.61246,25.61246 0 0 0 -13.18811,-3.4596 a16.41918,16.41918 0 0 0 -12.10913,5.71143 c-3.41095,4.2392 -3.99622,10.23181 -2.7182,15.52069 C218.98060338867185,27.46580310058596 227.38522338867188,21.038803100585938 225.38522338867188,24.038803100585938 c-1.6418500000000003,2.34882 -4.3266,12.2215 -5,15 c-1.08368,4.4718 -4.06343,9.06211 -1.40907,12.82053 c3.13885,4.44446 8.74,6.65363 14.17651,6.878 s10.7876,-1.28223 15.95416,-2.98871 z" fill="#2f2e41" id="svg_56"/><path d="M236.27081338867185,32.822283100585935 a1.00011,1.00011 0 0 1 -0.27295,-1.96191 c0.26221,-0.43262000000000006 0.15479000000000004,-2.25342 0.06836000000000002,-3.72461 c-0.32519000000000003,-5.52393 -0.8696300000000001,-14.769 8.106,-21.00977 a0.99976,0.99976 0 0 1 1.1416,1.6416000000000002 c-8.05469,5.60108 -7.57129,13.81543 -7.251,19.25049 c0.18262,3.10742 0.31500000000000006,5.352 -1.56982,5.7793 A0.9935099999999999,0.9935099999999999 0 0 1 236.27081338867185,32.822283100585935 z" fill="#ed8936" id="svg_57" class="" fill-opacity="1"/><path d="M0.0000033886718711073627,451.9505631005859 a1.18648,1.18648 0 0 0 1.18292,1.19 H716.4800333886719 a1.19,1.19 0 0 0 0,-2.38 h-715.29 a1.18649,1.18649 0 0 0 -1.19,1.183 z" fill="#ccc" id="svg_58"/><path d="M442.5347633886719,94.84945310058595 H427.4026833886719 a1.51321,1.51321 0 0 1 0,-3.02642 h15.13208 a1.51321,1.51321 0 0 1 0,3.02642 z" fill="#ed8936" id="svg_59" class="" fill-opacity="1"/><path d="M469.7724933886718,94.84945310058595 H454.6404233886718 a1.51321,1.51321 0 1 1 0,-3.02642 h15.13207 a1.51321,1.51321 0 1 1 0,3.02642 z" fill="#ed8936" id="svg_60" class="" fill-opacity="1"/><path d="M483.39136338867183,106.95511310058595 H468.25929338867184 a1.51321,1.51321 0 1 1 0,-3.02642 h15.13207 a1.51321,1.51321 0 1 1 0,3.02642 z" fill="#ed8936" id="svg_61" class="" fill-opacity="1"/><path d="M456.2371233886719,106.95511310058595 H427.4026833886719 a1.51321,1.51321 0 0 1 0,-3.02642 H456.2371233886719 a1.51321,1.51321 0 0 1 0,3.02642 z" fill="#ed8936" id="svg_62" class="" fill-opacity="1"/><path d="M510.71259338867185,94.84945310058595 H481.8781533886719 a1.51321,1.51321 0 0 1 0,-3.02642 h28.83444 a1.51321,1.51321 0 1 1 0,3.02642 z" fill="#ed8936" id="svg_63" class="" fill-opacity="1"/><path d="M452.89451338867184,71.92548310058595 H424.06008338867184 a1.51321,1.51321 0 1 1 0,-3.02641 h28.83443 a1.5131999999999999,1.5131999999999999 0 1 1 0,3.02641 z" fill="#ed8936" id="svg_64" class="" fill-opacity="1"/><path d="M455.2653033886719,80.76622310058593 a1.35512,1.35512 0 0 1 -0.8323900000000001,-2.425 l7.38326,-5.73907 a2.71359,2.71359 0 0 0 0.32800000000000007,-3.9837 l-6.19864,-6.7106 a1.35508,1.35508 0 1 1 1.99032,-1.8394599999999999 l9.20523,9.96483 a1.3553000000000002,1.3553000000000002 0 0 1 -0.16344000000000006,1.98966 l-10.88125,8.45819 A1.35141,1.35141 0 0 1 455.2653033886719,80.76622310058593 z" fill="#ed8936" id="svg_65" class="" fill-opacity="1"/><path d="M422.6010333886719,80.76622310058593 a1.35512,1.35512 0 0 0 0.8323900000000001,-2.425 l-7.38326,-5.73907 a2.71358,2.71358 0 0 1 -0.32800000000000007,-3.9837 l6.19864,-6.7106 a1.35508,1.35508 0 0 0 -1.99032,-1.8394599999999999 l-9.20523,9.96483 a1.35531,1.35531 0 0 0 0.16343000000000005,1.98966 l10.88126,8.45819 A1.3513600000000001,1.3513600000000001 0 0 0 422.6010333886719,80.76622310058593 z" fill="#6c63ff" id="svg_66" class=""/><path d="M422.6010333886719,80.76622310058593 a1.35512,1.35512 0 0 0 0.8323900000000002,-2.425 l-7.38326,-5.73907 a2.71358,2.71358 0 0 1 -0.3280000000000001,-3.9837 l6.19864,-6.7106 a1.35508,1.35508 0 0 0 -1.99032,-1.8394599999999999 l-9.20523,9.96483 a1.35531,1.35531 0 0 0 0.1634300000000001,1.98966 l10.88126,8.45819 A1.3513600000000001,1.3513600000000001 0 0 0 422.6010333886719,80.76622310058593 z" fill="#ed8936" class="" id="svg_71" fill-opacity="1"/><path d="M467.8007333886719,132.90549310058594 H438.9663033886719 a1.51321,1.51321 0 0 1 0,-3.02642 h28.83443 a1.51321,1.51321 0 0 1 0,3.02642 z" fill="#ed8936" id="svg_67" class="" fill-opacity="1"/><path d="M472.8817433886719,140.39111310058593 a1.35512,1.35512 0 0 1 -0.8323900000000001,-2.425 l7.38326,-5.73907 a2.71357,2.71357 0 0 0 0.32800000000000007,-3.98369 l-6.19864,-6.71061 a1.35508,1.35508 0 0 1 1.99032,-1.8394599999999999 l9.20523,9.96483 a1.35531,1.35531 0 0 1 -0.16343000000000005,1.98966 l-10.88125,8.4582 A1.35146,1.35146 0 0 1 472.8817433886719,140.39111310058593 z" fill="#ed8936" id="svg_68" class="" fill-opacity="1"/><path d="M422.6010333886719,140.39111310058593 a1.35512,1.35512 0 0 0 0.8323900000000001,-2.425 l-7.38326,-5.73907 a2.71357,2.71357 0 0 1 -0.32800000000000007,-3.98369 l6.19864,-6.71061 a1.35508,1.35508 0 1 0 -1.99032,-1.8394599999999999 l-9.20523,9.96483 a1.35531,1.35531 0 0 0 0.16343000000000005,1.98966 l10.88126,8.4582 A1.35142,1.35142 0 0 0 422.6010333886719,140.39111310058593 z" fill="#ed8936" id="svg_69" class="" fill-opacity="1"/><path d="M425.17436338867185,136.1513631005859 l6.06111,-13.86516 a1.51321,1.51321 0 0 1 2.773,1.21223 l-6.06112,13.86515 a1.51321,1.51321 0 1 1 -2.773,-1.21222 z" fill="#ed8936" id="svg_70" class="" fill-opacity="1"/></g></svg>