<svg xmlns="http://www.w3.org/2000/svg" xmlns:xlink="http://www.w3.org/1999/xlink" data-name="Layer 1" width="751.13137" height="556.41471"><rect id="backgroundrect" width="100%" height="100%" x="0" y="0" fill="none" stroke="none"/><g class="currentLayer" style=""><title>Layer 1</title><path d="M2170.7891386328124,1963.3233443359375 H2330.0547786328125 a0,0 0 0 1 0,0 v4.88731 a16,16 0 0 1 -16,16 H2186.7891186328125 a16,16 0 0 1 -16,-16 V1963.3233443359375 A0,0 0 0 1 2170.7891386328124,1963.3233443359375 z" transform="rotate(-180 1425.4698486328125,1258.5804443359375) " fill="#e6e6e6" id="svg_1"/><path d="M596.790733828125,533.9255216845703 l4.84319,-1.95053 c-50.67694,-125.78911 -45.79487,-284.48233 -2.9564,-420.6131 a85.00544,85.00544 0 0 0 -24.76415,-89.93432 c-24.86485,-22.18892 -59.14455,-27.59433 -89.46708,-14.10823 c-29.930509999999998,13.314 -34.056,36.505 -34.056,59.58311 h5.22183 c0,-24.63475 5.26453,-43.38347 30.95677,-54.81195 c28.41917,-12.63895 60.55455,-7.56947 83.86726,13.23368 A79.83855,79.83855 0 0 1 593.696673828125,109.79382168457033 C550.363533828125,247.4964816845703 545.767673828125,407.2797116845703 596.790733828125,533.9255216845703 z" fill="#e6e6e6" id="svg_2"/><circle cx="454.3067321777344" cy="125.6479721069336" r="18.27638053894043" fill="#e6e6e6" id="svg_3"/><path d="M426.159383828125,157.5089316845703 V122.87955168457029 h5.38462 v34.62938 a7.17949,7.17949 0 1 1 -5.38462,0 z" fill="#e6e6e6" id="svg_4"/><path d="M400.13023382812503,96.27497168457029 a30.05968,30.05968 0 0 1 30.02549,-30.02549 h49.60733 a30.02549,30.02549 0 1 1 0,60.051 H430.155723828125 A30.05968,30.05968 0 0 1 400.13023382812503,96.27497168457029 z" fill="#ed8936" id="svg_5" class="selected" fill-opacity="1"/><path d="M330.23559382812505,282.2119216845703 c4.98069,-63.72268 30.44665,-94.08347 14.14038,-113.123 c-15.61943,-18.23757 -59.61664,-14.47019 -87.87233,3.03008 c-76.21224,47.20238 -104.13353,235.33248 -6.06016,327.24868 C343.638133828125,586.7114416845703 520.260263828125,558.7370216845703 559.511673828125,487.2473516845703 c9.15849,-16.680600000000002 16.43412,-45.92231 3.03008,-63.63168 c-33.27833,-43.96718 -154.271,35.66934 -208.06552,-14.14038 C322.595673828125,379.95635168457034 327.50220382812495,317.18280168457034 330.23559382812505,282.2119216845703 z" fill="#3f3d56" id="svg_6"/><path d="M388.49311382812505,250.5540816845703 a7.82192,7.82192 0 0 0 -3.92393,10.1798 a7.50441,7.50441 0 0 0 0.59726,1.08727 l-16.358060000000002,21.84173 l8.16253,12.19983 l19.17365,-32.34318 a7.80022,7.80022 0 0 0 2.37337,-9.22241 a7.4648,7.4648 0 0 0 -9.83829,-3.82815 Q388.585803828125,250.51025168457033 388.49311382812505,250.5540816845703 z" fill="#ffb6b6" id="svg_7"/><path d="M388.479903828125,288.2125316845703 c1.07063,0.94943 -1.89886,2.12109 -5.04,0.27273 c-0.8989400000000002,-0.53529 -1.2827600000000001,-0.7575200000000001 -1.38374,-0.6161000000000001 c-0.2525,0.35348000000000007 1.2221,2.95937 0.82823,8.7468 c-0.24245000000000003,3.45434 -5.9794,9.9488 -12.49408,16.28163 c-8.80741,8.56507 -19.04909,16.82708 -19.04909,16.82708 l-3.5957,-2.87862 l-37.70431,-30.23009 l-6.36316,-8.8074 a62.68137,62.68137 0 0 1 2.616,-10.23158 a111.54646,111.54646 0 0 1 5.67634,-13.47378 c1.1716,-2.37354 2.37354,-4.636 3.525,-6.7166500000000005 l20.20054,22.261 l16.92806,18.64512 s4.92893,-7.9388000000000005 8.7468,-10.10027 a3.636,3.636 0 0 1 1.6160800000000002,-0.5555 c3.85831,-0.18186000000000002 4.0906,-2.28267 -0.3838100000000001,-6.85812 c-4.47441,-4.5753900000000005 1.1716,-0.30300000000000005 5.15111,-1.5352000000000001 c3.97951,-1.23227 0,0 0.8383400000000001,-3.08063 c0.8383400000000001,-3.08057 11.99912,-9.26193 11.99912,-9.26193 l0.46464,0.41408000000000006 l8.4337,7.444 l2.414,2.13114 s-2.6362200000000002,7.23176 -3.36341,8.75691 C387.81325382812497,287.1722316845703 387.419383828125,287.2530516845703 388.479903828125,288.2125316845703 z" fill="#ed8936" id="svg_8" class="" fill-opacity="1"/><polygon points="610.804 428.521 611.215 417.38 568.439 410.493 567.832 426.935 610.804 428.521" fill="#ffb6b6" id="svg_9"/><path d="M603.039053828125,431.87510168457027 l-0.40561,-17.83786 l7.62572,0.2813800000000001 l12.31109,-16.49047 a4.76656,4.76656 0 0 1 8.58321,3.02706 l-0.7818700000000001,21.19 l-7.677770000000001,3.37409 l7.49039,1.70441 l-0.29480000000000006,7.98946 z" fill="#2f2e41" id="svg_10"/><path d="M370.05467382812503,432.85844168457027 l135.48815,3.43539 s58.5083,3.37942 72.23573,-5.55075 l14.47608,-1.82755 l0.78459,-21.26375 s-8.85213,0.06528000000000002 -13.94155,-2.306 s-1.5523099999999999,-5.27294 -6.40475,-2.4198500000000003 s-4.33986,3.19622 -8.0916,1.8850000000000002 S388.806213828125,377.27645168457036 388.806213828125,377.27645168457036 z" fill="#2f2e41" id="svg_11"/><polygon points="548.592 423.631 556.471 415.744 529.796 381.601 518.168 393.243 548.592 423.631" fill="#ffb6b6" id="svg_12"/><path d="M540.618563828125,416.76921168457034 l11.83461,-13.35273 l5.399,5.39271 l20.24079,-3.716 a4.7665500000000005,4.7665500000000005 0 0 1 4.23354,8.05677 l-14.985,15.00253 l-7.92335,-2.7483 l4.332,6.34388 l-5.64994,5.65656 z" fill="#2f2e41" id="svg_13"/><path d="M316.60081382812496,358.6565216845703 l1.347,31.31039 c1.58568,36.85938 42.178,59.168 73.65429,39.923 q0.8702000000000001,-0.532 1.74621,-1.10227 s11.93274,-3.20452 11.57052,-8.27942 s2.5529,-7.5448 5.1327,-6.16087 s36.357,-46.55255 36.357,-46.55255 s70.17819,35.00629 85.66005,43.247 c0,0 14.556000000000001,-22.75905 13.50069,-22.52046 s-86.81888000000001,-59.78843 -86.81888000000001,-59.78843 s-13.97191,-14.14036 -31.30356,-4.804 c-0.36100000000000004,1.37144 -0.052370000000000014,1.41923 -0.052370000000000014,1.41923 l-57.25272,46.651740000000004 l-8.08973,-15.36335 z" fill="#2f2e41" id="svg_14"/><path d="M370.582193828125,319.5133516845703 a32.35389,32.35389 0 0 1 -0.6161000000000001,4.30266 a25.39005,25.39005 0 0 1 -1.97961,5.939 s0,2.111 -4.04011,9.18117 s1.01,4.0401 4.04011,9.29226 c3.03008,5.242 0,2.82806 -3.36341,6.20151 a7.7216000000000005,7.7216000000000005 0 0 0 -1.909,7.60553 s-43.39078,0.030330000000000006 -51.471,-2.99975 s-9.91841,-20.09955 -2.67653,-21.78628 c7.23176,-1.6867900000000002 -2.19175,-3.36341 -6.444,-7.252 c-4.25224,-3.88864 4.25223,-10.25179 4.25223,-10.25179 s-3.50482,-6.05 -3.21193,-26.36168 a40.02917,40.02917 0 0 1 0.51512,-5.57536 a62.68137,62.68137 0 0 1 2.616,-10.23158 a111.54646,111.54646 0 0 1 5.67634,-13.47378 c1.1716,-2.37354 2.37354,-4.636 3.525,-6.7166500000000005 c0.18180000000000002,-0.32321000000000005 0.35349,-0.6363200000000001 0.53535,-0.94942 c2.1917400000000002,-3.87853 4.1915700000000005,-7.05 5.51471,-9.08013 c1.02013,-1.5756400000000002 1.63623,-2.46447 1.63623,-2.46447 l7.353,-12.787 l24.54364,11.50422 l-1.39385,18.81681 l4.232,14.19086 l1.94934,6.53491 l1.5049299999999999,5.04 l2.3231100000000002,7.80749 s-0.6363200000000001,0.030330000000000006 0.12120000000000002,1.07062 a34.48445,34.48445 0 0 1 6.57523,15.82711 A32.22705,32.22705 0 0 1 370.582193828125,319.5133516845703 z" fill="#ed8936" id="svg_15" class="" fill-opacity="1"/><path d="M441.46150382812505,321.5412216845703 l-0.46062000000000003,-0.14890000000000003 l-58.74434,-18.91675 l21.64693,-71.01669 a9.76773,9.76773 0 0 1 14.31159,-5.56184 l37.5399,22.17917 a14.71548,14.71548 0 0 1 6.31875,17.78792 z" fill="#2f2e41" id="svg_16"/><path d="M441.700163828125,326.0558816845703 l-59.217060000000004,-19.069 l21.64693,-71.01669 A9.76774,9.76774 0 0 1 418.441673828125,230.40835168457033 l39.33218,19.63747 c5.909,3.4901 5.77083,12.5236 3.0271,19.93565 z" fill="#ed8936" id="svg_17" class="" fill-opacity="1"/><path d="M435.77143382812505,331.19606168457034 a11.29067,11.29067 0 0 1 -9.05,0.90014 l-37.85,-12.189 A11.70354,11.70354 0 0 1 381.296573828125,305.4173516845703 l18.9763,-62.255 a9.767,9.767 0 0 1 12.3904,-6.43128 l39.22419,12.879 a14.72181,14.72181 0 0 1 9.26517,18.95877 l-20.28935,56.56519 A11.30443,11.30443 0 0 1 435.77143382812505,331.19606168457034 z" fill="#3f3d56" id="svg_18"/><circle cx="353.6907653808594" cy="205.2139129638672" r="27.110029220581055" fill="#ffb6b6" id="svg_19"/><path d="M262.017283828125,232.7323516845703 a23.51079,23.51079 0 0 0 11.54593,10.793379999999999 a27.03309,27.03309 0 0 0 6.22181,1.9691800000000002 a24.32592,24.32592 0 0 1 2.87928,-6.81569 a20.083,20.083 0 0 0 0,7.19949 a23.90012,23.90012 0 0 0 9.66306,-1.19949 a20.72563,20.72563 0 0 0 13.03373,-13.2043 c2.15964,-7.18605 -0.16652000000000003,-14.86126 -0.34976000000000007,-22.36206 c-0.18876000000000004,-7.50161 3.3734,-16.47382 10.82029,-17.402 c5.67126,-0.7080000000000001 4.96994,-0.15829000000000004 9.045,3.84815 c-5.70016,6.332 8.19607,34.37709 15.65267,33.13789 c4.21581,-0.7006200000000001 7.31811,-4.04765 8.15195,-3.9316 c4.26951,10.45617 -8.57381,25.28562 1.61266,30.15385 l-0.7558300000000001,-1.00022 c-5.33192,-8.80838 10.44513,-23.68549 5.11318,-32.49391 c-1.4865,-2.46411 -3.03207,-5.353 -2.11235,-8.07886 c0.8729400000000002,-2.5917000000000003 5.29326,-3.4119200000000003 6.2259,-1.05306 c-1.51608,-5.40656 2.71634,-11.75247 8.33769,-12.30423 c4.994,-0.49271000000000004 4.7058,0.9307200000000001 9.46731,2.22945 a24.29314,24.29314 0 0 1 2.60765,-5.83464 a19.91791,19.91791 0 0 0 -0.13887,6.2964400000000005 a7.8547400000000005,7.8547400000000005 0 0 0 4.9415,-1.046 c4.3972,-2.636 4.52795,-9.44015 1.50733,-13.5813 c-3.02616,-4.14191 -8.09474,-6.187 -12.98486,-7.73444 c-0.04495000000000001,-10.34157 -27.8717,-15.29232 -32.98954,-5.67751 c-0.52649,-7.785 -9.45039,-13.02916 -17.13792,-11.7067 s-13.7522,7.48658 -17.44971,14.35725 c-3.69673,6.86515 -5.53208,14.55228 -8.23846,21.86485 s-6.575,14.60413 -13.05555,18.94285 c-6.47973,4.33319 -16.10945,4.72678 -21.51973,-0.8896300000000001 A17.16757,17.16757 0 0 0 262.017283828125,232.7323516845703 z" fill="#2f2e41" id="svg_20"/><path d="M289.83448382812503,356.7048716845703 a9.78761,9.78761 0 0 1 1.81465,-1.14924 c10.37663,-5.16441 42.64546,-18.5698 67.8772,-18.01975 c48.54787,1.05833 110.33162,54.63715 95.95255,90.617 c-10.94126,27.37774 -65.33636,42.95393 -105.04279,30.49612 C294.810273828125,441.1965016845703 272.854153828125,370.2436916845703 289.83448382812503,356.7048716845703 z" fill="#3f3d56" id="svg_21"/><path d="M88.291673828125,553.9405716845703 c-15.8635,-2.9927 -29.90557,-74.46031 1.30546,-109.65831 c10.69336,-12.05937 24.03189,-17.30805 41.77459,-22.19275 c102.12134,-28.11479 180.01109,-1.32017 190.47828,5.22183 c10.44365,6.52728 28.75241,104.87528 5.34013,118.79649 c-13.17287,7.83274 -39.282,11.74911 -52.21825,2.61092 c-19.03473,-13.44617 12.91529,-48.32363 -1.30545,-71.80009 C257.528983828125,450.27793168457026 172.551673828125,441.3043516845703 129.94800382812502,467.78047168457033 C84.49424382812498,496.0277716845703 178.24987382812498,570.9115016845703 88.291673828125,553.9405716845703 z" fill="#f2f2f2" id="svg_22"/><path d="M194.35294382812498,432.43017168457027 H133.748673828125 c-14.96069,-14.33791 -25.65758,-28.156 -17.09352,-39.62591 a12.43165,12.43165 0 0 1 12.43164,-12.43164 h69.928 a12.43166,12.43166 0 0 1 12.43165,12.43164 C214.70709382812498,405.8736416845703 208.881843828125,419.0842516845703 194.35294382812498,432.43017168457027 z" fill="#ccc" id="svg_23"/><path d="M183.468923828125,364.7223516845703 a2.80741,2.80741 0 0 1 -2.03464,-4.86592 l0.19237,-0.7647700000000002 q-0.038000000000000006,-0.09188000000000002 -0.07643000000000001,-0.18358000000000002 a7.5391,7.5391 0 0 0 -13.90674,0.051670000000000015 c-2.27452,5.4781 -5.17037,10.96553 -5.8834,16.75771 a22.30361,22.30361 0 0 0 0.3915200000000001,7.67061 A89.41955,89.41955 0 0 1 154.017473828125,346.24935168457034 a86.307,86.307 0 0 1 0.53535,-9.6283 q0.44351000000000007,-3.93126 1.23056,-7.80652 a90.4555,90.4555 0 0 1 17.93811,-38.33731 a24.07269,24.07269 0 0 0 10.01181,-10.38735 a18.36288,18.36288 0 0 0 1.6700000000000002,-5.0179 c-0.48739000000000005,0.06393000000000001 -1.83779,-7.3591 -1.47018,-7.81452 c-0.6792400000000002,-1.03072 -1.895,-1.5430700000000002 -2.6368,-2.54885 c-3.6894400000000003,-5.00211 -8.77254,-4.12872 -11.42613,2.66875 c-5.66869,2.861 -5.72356,7.60578 -2.24528,12.16916 c2.2129,2.90325 2.517,6.83168 4.45862,9.93984 c-0.19980000000000003,0.25572 -0.40756000000000003,0.50345 -0.6073000000000001,0.7591600000000001 a91.03942,91.03942 0 0 0 -9.50222,15.05379 a37.846000000000004,37.846000000000004 0 0 0 -2.25945,-17.5787 c-2.16269,-5.21725 -6.21632,-9.61123 -9.786,-14.12154 c-4.28781,-5.41757 -13.08034,-3.05323 -13.83576,3.81439 q-0.011000000000000003,0.09975000000000003 -0.021410000000000005,0.19942000000000004 q0.79533,0.44867000000000007 1.5570599999999999,0.95246 a3.808,3.808 0 0 1 -1.53533,6.92993 l-0.07765000000000001,0.012000000000000002 a37.88985,37.88985 0 0 0 0.99877,5.665150000000001 c-4.5795,17.71008 5.3073,24.16047 19.42431,24.45023 c0.31164000000000003,0.15978000000000003 0.6153200000000001,0.3195700000000001 0.92695,0.47144 a92.9244,92.9244 0 0 0 -5.00193,23.53931 a88.13549,88.13549 0 0 0 0.06393000000000001,14.23066 l-0.024000000000000004,-0.16778000000000004 a23.28912,23.28912 0 0 0 -7.95036,-13.44763 c-6.11821,-5.0259 -14.76211,-6.87667 -21.36258,-10.9165 a4.37072,4.37072 0 0 0 -6.6942200000000005,4.252 q0.013270000000000004,0.08818000000000002 0.027000000000000007,0.17642000000000002 a25.578,25.578 0 0 1 2.86848,1.38225 q0.79533,0.44877000000000006 1.5570599999999999,0.95247 a3.80809,3.80809 0 0 1 -1.53533,6.93 l-0.07771000000000002,0.011930000000000003 c-0.05591000000000001,0.008000000000000002 -0.10388,0.016000000000000004 -0.15973000000000004,0.024000000000000004 a37.923,37.923 0 0 0 6.97545,10.92265 c2.86344,15.46021 15.162,16.927 28.31753,12.42487 h0.008000000000000002 a92.89706,92.89706 0 0 0 6.24044,18.21782 h22.2928 c0.08000000000000002,-0.24769000000000002 0.15184000000000003,-0.5034099999999999 0.22378000000000003,-0.7511400000000001 a25.32893,25.32893 0 0 1 -6.16855,-0.36745000000000005 c1.6540000000000001,-2.02957 3.308,-4.07512 4.962,-6.10463 a1.38378,1.38378 0 0 0 0.10387,-0.11986000000000002 c0.8390000000000001,-1.03867 1.68595,-2.06946 2.52492,-3.10817 l0.0004400000000000001,-0.0012600000000000003 a37.1011,37.1011 0 0 0 -1.08711,-9.45126 z" fill="#ccc" id="svg_24"/><path d="M259.505423828125,429.1829516845703 a5.3847000000000005,5.3847000000000005 0 0 0 5.1890600000000004,3.6347300000000002 l22.23279,-0.5721700000000001 a5.3110800000000005,5.3110800000000005 0 0 0 5.01933,-3.9083 l3.14618,-33.64248 a8.21958,8.21958 0 0 0 3.55661,0.7307900000000002 a8.1081,8.1081 0 0 0 -0.40694,-16.2111 a6.86892,6.86892 0 0 0 -1.45706,0.15154000000000004 a5.495,5.495 0 0 0 -4.09046,-1.7649400000000002 l-34.19915,0.8831200000000001 a4.91207,4.91207 0 0 0 -0.84358,0.10473000000000002 a5.34133,5.34133 0 0 0 -4.08973,6.93595 zm36.23256,-36.7725 l2.23876,-8.017 a5.46025,5.46025 0 0 0 0.017090000000000004,-2.83205 c0.10863000000000002,-0.0002900000000000001 0.20446000000000003,-0.05177000000000001 0.31309000000000003,-0.05206000000000001 a5.79951,5.79951 0 0 1 0.27155,11.595790000000001 A5.45943,5.45943 0 0 1 295.73798382812504,392.41045168457026 z" fill="#ccc" id="svg_25"/><path d="M257.652203828125,378.58887168457034 c0.7286000000000001,4.166 8.92027,7.0947700000000005 18.77014,6.58571 c9.05759,-0.4173200000000001 16.4636,-3.59782 17.82043,-7.36721 a5.05658,5.05658 0 0 0 -1.54784,-0.20635 l-34.19915,0.8831200000000001 A4.91207,4.91207 0 0 0 257.652203828125,378.58887168457034 z" fill="#fff" id="svg_26"/><path d="M1.190673828125,555.5180016845703 l748.75,0.30734000000000006 a1.19068,1.19068 0 0 0 0,-2.38137 l-748.75,-0.30733000000000005 a1.19068,1.19068 0 1 0 0,2.38136 z" fill="#cacaca" id="svg_27"/><path d="M421.14117382812503,289.4135416845703 a7.82193,7.82193 0 0 0 -7.53635,7.88854 a7.50491,7.50491 0 0 0 0.1333,1.23334 l-23.49857,13.87315 l2.84432,14.40044 l30.13545,-22.48477 a7.80023,7.80023 0 0 0 5.73687,-7.60093 a7.46479,7.46479 0 0 0 -7.6101,-7.31661 Q421.243583828125,289.40871168457033 421.14117382812503,289.4135416845703 z" fill="#ffb6b6" id="svg_28"/><path d="M401.891583828125,322.4865016845703 c-0.6286400000000002,-0.84208 -0.8987400000000002,-1.19462 -1.0416400000000001,-1.09788 c-0.36793000000000003,0.22200000000000003 -0.013890000000000003,3.19725 -2.60182,8.38274 c-3.64349,7.28491 -41.844,18.44233 -41.844,18.44233 l-4.70333,-8.61053 l-20.68782,-37.83969 l-7.13063,-30.32979 a13.53056,13.53056 0 0 1 -0.36077000000000004,-3.2277 a128.177,128.177 0 0 1 20.17133,-11.61092 a13.5043,13.5043 0 0 1 6.06057,7.22046 l14.24065,39.92911 l5.68258,15.9421 s10.02413,-7.16788 13.66019,-5.85219 c3.63018,1.324 4.66184,-0.53234 2.28889,-6.47485 c-2.373,-5.94254 1.1888,0.17448000000000002 5.3336,0.56321 c4.1531,0.3946200000000001 0,0 1.9617400000000003,-2.52163 s14.644680000000001,-3.94046 14.644680000000001,-3.94046 l0.26955,0.56271 l4.915,10.11037 l1.40707,2.90478 s-5.21062,5.65345 -6.46781,6.78012 c-1.26307,1.135 -1.6531600000000002,1.05648 -1.03474,2.34947 C407.26503382812496,325.4554016845703 404.074733828125,325.3968616845703 401.891583828125,322.4865016845703 z" fill="#ed8936" id="svg_29" class="" fill-opacity="1"/></g></svg>