<svg xmlns="http://www.w3.org/2000/svg" xmlns:xlink="http://www.w3.org/1999/xlink" data-name="Layer 1" width="808.4570922851562" height="588.7659912109375" style=""><rect id="backgroundrect" width="100%" height="100%" x="0" y="0" fill="none" stroke="none"/><g class="currentLayer" style=""><title>Layer 1</title><path d="M329.29671088378905,319.2451408642578 a6.146,6.146 0 0 1 -4.45424,-10.65252 c0.15500000000000003,-0.6159400000000002 0.26615,-1.05828 0.42112000000000005,-1.67422 q-0.08318000000000002,-0.20115 -0.16733000000000003,-0.40189 c-5.65823,-13.49205 -24.83459,-13.399000000000001 -30.44469,0.11311000000000002 c-4.97938,11.99269 -11.319,24.00579 -12.88,36.68606 a48.82691,48.82691 0 0 0 0.8571200000000001,16.79252 a195.75752,195.75752 0 0 1 -17.80728,-81.30429 a188.94489,188.94489 0 0 1 1.172,-21.07831 q0.9709,-8.60635 2.69393,-17.09009 a198.02575,198.02575 0 0 1 39.27021,-83.9282 a52.70011,52.70011 0 0 0 21.91788,-22.74 a40.19927,40.19927 0 0 0 3.65593,-10.98522 c-1.067,0.13995000000000002 -4.02329,-16.11057 -3.21852,-17.10758 c-1.487,-2.25645 -4.14846,-3.3781 -5.7725,-5.58 c-8.07693,-10.95063 -19.20487,-9.03861 -25.01412,5.84245 c-12.40993,6.26331 -12.53006,16.65059 -4.91538,26.64078 c4.84449,6.3558 5.51013,14.95594 9.76083,21.76034 c-0.4374100000000001,0.5598200000000001 -0.8922200000000001,1.10214 -1.3295000000000001,1.6620000000000001 a199.30427,199.30427 0 0 0 -20.80231,32.95581 c1.6524900000000002,-12.90816 -0.78723,-28.45907 -4.9464,-38.48337 c-4.73457,-11.42162 -13.6088,-21.04094 -21.42362,-30.91492 c-9.38688,-11.86017 -28.63553,-6.68416 -30.2893,8.35047 q-0.024000000000000004,0.21837 -0.04688000000000001,0.43657000000000007 q1.7411400000000001,0.9822 3.40872,2.08514 a8.33658,8.33658 0 0 1 -3.36113,15.171 l-0.17,0.026200000000000005 a82.94775,82.94775 0 0 0 2.1865,12.40218 c-10.02545,38.771 11.61877,52.8922 42.5238,53.52655 c0.6822300000000001,0.3498000000000001 1.34705,0.6996100000000002 2.02927,1.03208 a203.43086,203.43086 0 0 0 -10.95025,51.53236 a192.94762,192.94762 0 0 0 0.14,31.15383 q-0.026320000000000007,-0.18381000000000003 -0.052510000000000015,-0.3673100000000001 a50.98481,50.98481 0 0 0 -17.405,-29.43962 c-13.394,-11.00271 -32.31728,-15.05442 -46.76707,-23.89845 c-6.95572,-4.25728 -15.869,1.24431 -14.655,9.30854 q0.029070000000000006,0.19308000000000003 0.05909000000000001,0.38622000000000006 a55.99735,55.99735 0 0 1 6.2797,3.026 q1.74112,0.98244 3.40873,2.08514 a8.3367,8.3367 0 0 1 -3.36116,15.17118 l-0.17013,0.026120000000000004 c-0.12240000000000001,0.017500000000000005 -0.22741000000000006,0.035070000000000004 -0.3496700000000001,0.05264000000000001 a83.02066,83.02066 0 0 0 15.27068,23.91191 c6.26865,33.84557 33.19262,37.05676 61.99287,27.20059 h0.017560000000000006 a203.37046,203.37046 0 0 0 13.66158,39.88252 h48.8035 c0.17500000000000002,-0.54224 0.3324100000000001,-1.10206 0.48991000000000007,-1.64438 a55.45114,55.45114 0 0 1 -13.50422,-0.80442 c3.621,-4.44315 7.2418,-8.92129 10.86278,-13.36428 a3.03435,3.03435 0 0 0 0.22741000000000006,-0.26242000000000004 c1.8366700000000002,-2.27386 3.69088,-4.53046 5.52755,-6.8044 l0.0010000000000000002,-0.0027700000000000008 a81.22191,81.22191 0 0 0 -2.3799200000000003,-20.69074 z" fill="#f2f2f2" id="svg_1"/><path d="M500.6958308837891,343.9317708642578 a2.664,2.664 0 0 1 -1.93073,-4.61743 l0.18254000000000004,-0.7257100000000001 q-0.036000000000000004,-0.08718000000000002 -0.07253000000000001,-0.17420000000000002 a7.15409,7.15409 0 0 0 -13.19654,0.04900000000000001 c-2.15836,5.19834 -4.90633,10.40554 -5.58295,15.90192 a21.16465,21.16465 0 0 0 0.37153,7.27888 a84.85305,84.85305 0 0 1 -7.71873,-35.24212 a81.89942,81.89942 0 0 1 0.508,-9.1366 q0.42086000000000007,-3.7305 1.16771,-7.40786 a85.83623,85.83623 0 0 1 17.02205,-36.37948 a22.84344,22.84344 0 0 0 9.50052,-9.85688 a17.42517,17.42517 0 0 0 1.5846900000000002,-4.76165 c-0.4625,0.06066000000000001 -1.7439300000000002,-6.98328 -1.3951,-7.41545 c-0.6445500000000001,-0.97807 -1.79819,-1.46426 -2.50214,-2.41868 c-3.501,-4.74666 -8.32454,-3.91787 -10.84261,2.53246 c-5.3792100000000005,2.7149 -5.43128,7.21736 -2.13062,11.5477 c2.0998900000000003,2.755 2.38842,6.4828 4.23092,9.43223 c-0.18959000000000004,0.24266000000000001 -0.38674000000000003,0.47774 -0.57628,0.7204 a86.39009,86.39009 0 0 0 -9.017,14.285 a35.91317,35.91317 0 0 0 -2.14407,-16.681 c-2.05224,-4.95081 -5.89886,-9.1204 -9.28627,-13.40037 c-4.06883,-5.1409 -12.41234,-2.89731 -13.12918,3.6196 q-0.01041,0.09465000000000003 -0.020320000000000005,0.18923000000000004 q0.7547100000000001,0.42574 1.47754,0.9038200000000001 a3.61358,3.61358 0 0 1 -1.45692,6.5760000000000005 l-0.07368000000000001,0.011360000000000002 a35.95534,35.95534 0 0 0 0.9477500000000001,5.37584 c-4.34562,16.80566 5.03627,22.92663 18.43235,23.20159 c0.29572000000000004,0.15163000000000001 0.5838900000000001,0.30326000000000003 0.8796100000000001,0.4473700000000001 A88.17923,88.17923 0 0 0 471.178930883789,320.1240108642578 a83.63611,83.63611 0 0 0 0.06066000000000001,13.50393 l-0.022750000000000006,-0.15921000000000005 a22.09985,22.09985 0 0 0 -7.54435,-12.76089 c-5.80577,-4.76923 -14.00824,-6.52548 -20.27164,-10.359 A4.1475100000000005,4.1475100000000005 0 0 0 437.0485308837891,314.3837108642578 q0.012580000000000003,0.08369000000000003 0.025610000000000004,0.16741000000000006 a24.27189,24.27189 0 0 1 2.722,1.31166 q0.7547100000000001,0.42585000000000006 1.47755,0.90383 a3.61362,3.61362 0 0 1 -1.45693,6.57609 l-0.07374000000000001,0.011320000000000002 c-0.05306000000000001,0.0075800000000000025 -0.09857000000000003,0.015200000000000003 -0.15157,0.022820000000000003 a35.98607,35.98607 0 0 0 6.61923,10.364840000000001 c2.7172,14.67069 14.38765,16.06261 26.8714,11.79036 h0.007610000000000001 a88.15267,88.15267 0 0 0 5.92174,17.28746 H500.165730883789 c0.07588,-0.23500000000000001 0.14409000000000002,-0.4777 0.21236000000000002,-0.7127700000000001 a24.036,24.036 0 0 1 -5.85353,-0.34869000000000006 c1.56954,-1.92592 3.1390000000000002,-3.867 4.70857,-5.79287 a1.31525,1.31525 0 0 0 0.09858000000000003,-0.11375000000000002 c0.79612,-0.98563 1.5998400000000002,-1.9637700000000002 2.396,-2.94943 l0.0004200000000000001,-0.0012000000000000003 a35.20632,35.20632 0 0 0 -1.0316,-8.9686 z" fill="#f2f2f2" id="svg_2"/><path d="M629.5024408837891,376.88295086425785 a6.48017,6.48017 0 0 0 -1.40067,-8.92922 a6.217,6.217 0 0 0 -0.8788500000000001,-0.5327500000000001 l2.90487,-44.11606 l-14.779630000000001,2.56172 l3.2945,44.88249 a6.46217,6.46217 0 0 0 2.11669,7.60009 a6.18428,6.18428 0 0 0 8.6445,-1.328 Q629.454090883789,376.95278086425776 629.5024408837891,376.88295086425785 z" fill="#a0616a" id="svg_3"/><polygon points="721.93 577.344 712.029 577.343 707.319 539.153 721.932 539.154 721.93 577.344" fill="#a0616a" id="svg_4"/><path d="M722.278380883789,587.6728008642579 l-30.447,-0.0011600000000000002 v-0.38500000000000006 A11.85149,11.85149 0 0 1 703.6821908837891,575.4360108642578 h0.0007300000000000002 l5.56152,-4.21924 l10.37659,4.2199100000000005 l2.65784,0.00006000000000000002 z" fill="#2f2e41" id="svg_5"/><polygon points="700.003 562.585 691.544 567.73 667.673 537.549 680.158 529.956 700.003 562.585" fill="#a0616a" id="svg_6"/><path d="M705.668600883789,571.2284508642579 L679.6552208837891,587.0501108642578 l-0.20008,-0.32894000000000007 A11.85147,11.85147 0 0 1 683.421530883789,570.4378108642578 l0.0006200000000000002,-0.00038000000000000013 l2.55891,-6.495 l11.05836,-1.78716 l2.27079,-1.38116 z" fill="#2f2e41" id="svg_7"/><path d="M567.7304608837891,47.31059086425782 H1.0000008837890562 a1,1 0 0 1 0,-2 H567.7304608837891 a1,1 0 0 1 0,2 z" fill="#e6e6e6" id="svg_8"/><path d="M450.6559708837891,183.4665708642578 h-334.808 a10.344,10.344 0 0 0 0,20.688 h334.808 a10.344,10.344 0 1 0 0,-20.688 z" fill="#3f3d56" id="svg_9"/><path d="M340.6559708837891,125.46657086425779 h-103.808 a10.344,10.344 0 0 0 0,20.688 h103.808 a10.344,10.344 0 1 0 0,-20.688 z" fill="#3f3d56" id="svg_10"/><ellipse cx="29.354839324951172" cy="8.64507007598877" rx="8.456609725952148" ry="8.64507007598877" fill="#e6e6e6" id="svg_11"/><ellipse cx="58.56858825683594" cy="8.64507007598877" rx="8.456609725952148" ry="8.64507007598877" fill="#e6e6e6" id="svg_12"/><ellipse cx="87.78234100341797" cy="8.64507007598877" rx="8.456609725952148" ry="8.64507007598877" fill="#e6e6e6" id="svg_13"/><path d="M121.09376088378906,15.477870864257824 a0.9967400000000001,0.9967400000000001 0 0 1 -0.7148400000000001,-0.30078000000000005 l-5.70606,-5.833 a0.99954,0.99954 0 0 1 0,-1.3984400000000001 l5.70606,-5.83252 a1,1 0 0 1 1.42968,1.3984400000000001 l-5.022,5.1333 l5.022,5.13379 a1,1 0 0 1 -0.7148400000000001,1.6992200000000002 z" fill="#e6e6e6" id="svg_14"/><path d="M130.6821408837891,15.477870864257824 a1,1 0 0 1 -0.7148400000000001,-1.6992200000000002 l5.02148,-5.13379 l-5.02148,-5.1333 a1,1 0 1 1 1.42968,-1.3984400000000001 l5.70557,5.83252 a0.99954,0.99954 0 0 1 0,1.3984400000000001 l-5.70557,5.833 A0.99672,0.99672 0 0 1 130.6821408837891,15.477870864257824 z" fill="#e6e6e6" id="svg_15"/><path d="M517.191970883789,1.000900864257801 h-10.61 a2.18934,2.18934 0 0 0 -2.19,2.19 v10.620000000000001 a2.18934,2.18934 0 0 0 2.19,2.19 h10.61 a2.1979,2.1979 0 0 0 2.2,-2.19 v-10.620000000000001 A2.1979,2.1979 0 0 0 517.191970883789,1.000900864257801 z" fill="#e6e6e6" id="svg_16"/><path d="M491.19197088378905,1.000900864257801 h-10.61 a2.18934,2.18934 0 0 0 -2.19,2.19 v10.620000000000001 a2.18934,2.18934 0 0 0 2.19,2.19 h10.61 a2.1979,2.1979 0 0 0 2.2,-2.19 v-10.620000000000001 A2.1979,2.1979 0 0 0 491.19197088378905,1.000900864257801 z" fill="#e6e6e6" id="svg_17"/><path d="M541.691970883789,1.500900864257801 h-10.61 a2.18934,2.18934 0 0 0 -2.19,2.19 v10.620000000000001 a2.18934,2.18934 0 0 0 2.19,2.19 h10.61 a2.1979,2.1979 0 0 0 2.2,-2.19 v-10.620000000000001 A2.1979,2.1979 0 0 0 541.691970883789,1.500900864257801 z" fill="#e6e6e6" id="svg_18"/><path d="M326.77027088378907,5.540880864257815 h-84.81 a2.67,2.67 0 1 0 0,5.34 h84.81 a2.67,2.67 0 0 0 0,-5.34 z" fill="#e6e6e6" id="svg_19"/><path d="M264.57086088378907,259.3105908642578 h-84 a15.5,15.5 0 0 0 0,31 h84 a15.5,15.5 0 0 0 0,-31 z" fill="#ed8936" id="svg_20" class="" fill-opacity="1"/><path d="M405.570860883789,259.3105908642578 h-84 a15.5,15.5 0 1 0 0,31 h84 a15.5,15.5 0 0 0 0,-31 z" fill="#fff" id="svg_21" class=""/><path d="M405.57080088378905,291.3105908642578 h-84 a16.5,16.5 0 0 1 0,-33 h84 a16.5,16.5 0 0 1 0,33 zm-84,-31 a14.5,14.5 0 0 0 0,29 h84 a14.5,14.5 0 0 0 0,-29 z" fill="#ed8936" id="svg_22" class="" fill-opacity="1"/><path d="M567.7304608837891,364.57036086425785 H1.0000008837890562 a1,1 0 0 1 0,-2 H567.7304608837891 a1,1 0 0 1 0,2 z" fill="#e6e6e6" id="svg_23"/><circle cx="24" cy="183.3105926513672" r="10" fill="#e6e6e6" id="svg_24"/><circle cx="506" cy="113.31059265136719" r="10" fill="#e6e6e6" id="svg_25"/><circle cx="118" cy="320.3105773925781" r="10" fill="#e6e6e6" id="svg_26"/><path d="M24.04696088378907,231.7950108642578 a69.25372,69.25372 0 0 1 39.731,-16.88451 a68.30036,68.30036 0 0 1 58.69691,25.66413 c1.18177,1.50041 -0.927,3.63762 -2.12132,2.12132 A66.18285,66.18285 0 0 0 87.25653088378908,220.28516086425782 a65.31425,65.31425 0 0 0 -61.08821,13.63116 c-1.44428,1.27109 -3.57409,-0.8427700000000001 -2.12132,-2.12132 z" fill="#3f3d56" id="svg_27"/><path d="M138.34304088378906,228.69132086425782 l8.84263,24.18357 a1.50786,1.50786 0 0 1 -1.44642,1.8987600000000002 l-28.29029,-2.01634 c-1.9147,-0.13646000000000003 -1.9297,-3.13753 0,-3 l28.29029,2.01634 l-1.44642,1.8987600000000002 l-8.84263,-24.18357 c-0.6640000000000001,-1.8160500000000002 2.23412,-2.599 2.89284,-0.79752 z" fill="#3f3d56" id="svg_28"/><path d="M720.0000008837891,358.31059086425785 s8.18443,16.26231 5,24 s2.61167,67.6831 -0.6941700000000002,70.34155 s-5.4332,0.5310900000000001 -0.8695200000000001,5.0947700000000005 s6.56369,-0.4363200000000001 5.56369,6.56368 s-7,96 -7,96 l-13.69417,0.3415500000000001 s-17.30583,-43.34155 -14.30583,-73.34155 l-17.13026,-82.61765 s-2.469,14.72 -2.66935,18.16883 s-2.20039,4.44882 -3.20039,4.44882 c-5.00486,0 -3.46457,-0.8897600000000001 -2.73229,4.05512 s-8.22586,44.52516 -8.22586,44.52516 l29.95815,69.41972 l-10,10 l-51.81975,-75.79807 l-9.93489,-77.0602 s-2.75464,-7.73228 0,-7.937 s4.31369,0.6692900000000002 3.53416,-2.26772 s15.22048,-51.937 15.22048,-51.937 z" fill="#2f2e41" id="svg_29"/><path d="M725.0000008837891,360.31059086425785 c-2.31,5.35 -10.18,0.45 -28,2 c-2.06,0.18000000000000002 -4.09,0.27 -6.11,0.29000000000000004 c-11.95,0.13 -23.12,-2.14 -32.16,-2.81 c-6.51,-0.49000000000000005 -11.92,-0.15000000000000002 -15.73,2.52 c-10,7 -13.96,-14.66 -13.96,-14.66 a27.38489,27.38489 0 0 1 3.96,-16.34 c5,-8 10.12,-27.01 3,-34 s-7.88,-17.99 -5,-21 s12.34,-63.2 11,-73 c-1.06,-7.73 10.88,-10.21 15.96,-10.91 c1.36,-0.19000000000000003 2.23,-0.25 2.23,-0.25 l11.81,2.16 l17,3 l13.69,0.26 s0.19000000000000003,0.09000000000000002 0.55,0.25 a112.67431,112.67431 0 0 1 17.76,10.49 c8.08,6.09 2.11,96.99 2.11,96.99 s-1.11,27.07 4.890000000000001,33.01 S727.309990883789,354.9605608642578 725.0000008837891,360.31059086425785 z" fill="#3f3d56" id="svg_30"/><path d="M666.0000008837891,198.1257208642578 l-23,1 s-31,62 -27,66 s8.08634,1.7292800000000002 3.04317,6.8646400000000005 s-10.04317,3.13536 -7.04317,7.13536 s7,-0.501 3,5.24948 s-1.1237300000000001,51.93539 -1.1237300000000001,51.93539 h15.81789 s11.18211,-38.799 10.244,-43.49195 s-1.06187,-8.70409 0,-10.1985 S666.0000008837891,198.1257208642578 666.0000008837891,198.1257208642578 z" fill="#3f3d56" id="svg_31"/><circle cx="680.1732177734375" cy="154.70428466796875" r="23.055700302124023" fill="#a0616a" id="svg_32"/><path d="M698.140010883789,174.5605908642578 l-9.14,1.75 s8.5,-13.72 8,-20 c-0.5,-6.28 -7.34,-8.53 -7.34,-8.53 s-3.79,0.8200000000000001 -7.78,1.28 a20.0613,20.0613 0 0 0 -1.85,-3.85 a6.71588,6.71588 0 0 1 -1.96,4.14 a10.93536,10.93536 0 0 1 -4.33,-0.5 c-1.58,-0.7200000000000001 -1.55,-1.97 -1.03,-3.14 a41.62385,41.62385 0 0 0 -14.82,4.07 a40.89906,40.89906 0 0 1 0.35000000000000003,-9.2 c0.22000000000000003,-0.06000000000000001 0.44000000000000006,-0.12994000000000003 0.6600000000000001,-0.2 a20.41435,20.41435 0 0 0 3.92,-1.71 a6.75162,6.75162 0 0 1 -3.7,-1.7400000000000002 c0.8400000000000001,-2.46 2.18,-4.59 4.29,-5.63 a15.81549,15.81549 0 0 1 13.13,-0.35000000000000003 s-4.88995,-3.5700000000000003 -3.09,-5.03 c0.12000000000000001,0.12000000000000001 0.24000000000000002,0.23 0.37000000000000005,0.3400000000000001 c0.17,0.14 0.36000000000000004,0.29000000000000004 0.54,0.43000000000000005 c1.11,0.9 2.77,-0.37000000000000005 2.99,-1.73 a4.58525,4.58525 0 0 1 0.1,-0.50995 c0.030000000000000006,-0.14 0.07,-0.28 0.11000000000000001,-0.41000000000000003 a3.3942200000000002,3.3942200000000002 0 0 1 0.12000000000000001,-0.3400000000000001 c3.33,-0.8 13.4,2.45 17.27,9.61 C694.9500108837891,133.3105908642578 722.0000008837891,146.3105908642578 698.140010883789,174.5605908642578 z" fill="#3f3d56" id="svg_33"/><path d="M696.466290883789,372.54815086425776 a6.48015,6.48015 0 0 1 5.31009,-7.31407 a6.21573,6.21573 0 0 1 1.025,-0.07453000000000001 L720.287530883789,324.5528908642578 l11.99554,9.00594 l-23.35533,38.46843 a6.4622,6.4622 0 0 1 -5.343,5.80472 a6.18429,6.18429 0 0 1 -7.09363,-5.1158 Q696.4775308837891,372.6323508642578 696.466290883789,372.54815086425776 z" fill="#a0616a" id="svg_34"/><path d="M698.5000008837891,208.1257208642578 l23,1 s34,58 30,62 s-8.08635,1.7292800000000002 -3.04318,6.8646400000000005 s10.04318,3.13536 7.04318,7.13536 s-7,-0.501 -3,5.24948 s-28.5,59.93539 -28.5,59.93539 l-14,-7 s13.62372,-35.799 14.56186,-40.49195 s1.06186,-8.70409 0,-10.1985 S698.5000008837891,208.1257208642578 698.5000008837891,208.1257208642578 z" fill="#3f3d56" id="svg_35"/><path d="M703.2399908837891,197.8206008642578 l-32.24,74.49 l-13.04,-79.91 c1.36,-0.19000000000000003 2.23,-0.25 2.23,-0.25 l5.55,-10.78 l31.79,1.6500000000000001 l5.16,14.55005 S702.8800008837891,197.6605708642578 703.2399908837891,197.8206008642578 z" fill="#ed8936" id="svg_36" class="" fill-opacity="1"/><path d="M690.890010883789,363.60057086425786 c-11.95,0.13 -23.12,-2.14 -32.16,-2.81 l11.27,-56.48 z" fill="#ed8936" id="svg_37" class="" fill-opacity="1"/><path d="M552.7870208837891,587.5760108642578 a1.18647,1.18647 0 0 0 1.1900600000000001,1.19 h253.29 a1.19,1.19 0 0 0 0,-2.38 h-253.29 A1.18651,1.18651 0 0 0 552.7870208837891,587.5760108642578 z" fill="#ccc" id="svg_38"/></g></svg>