<svg xmlns="http://www.w3.org/2000/svg" xmlns:xlink="http://www.w3.org/1999/xlink" data-name="Layer 1" width="717.6700439453125" height="596.3292236328125" style=""><rect id="backgroundrect" width="100%" height="100%" x="0" y="0" fill="none" stroke="none"/><g class="currentLayer" style=""><title>Layer 1</title><rect x="204.85476684570312" width="326" height="594" rx="58.72835159301758" fill="#3f3d56" id="svg_1"/><path d="M525.3552219726563,58.7323265576172 v476.54 a53.29169,53.29169 0 0 1 -53.23,53.23 h-208.54 a53.29169,53.29169 0 0 1 -53.23,-53.23 v-476.54 a53.29173,53.29173 0 0 1 53.23,-53.23 h27.27 v9.42 a16.08092,16.08092 0 0 0 16.08,16.08 h121.84 a16.08092,16.08092 0 0 0 16.08,-16.08 v-9.42 h27.27 A53.29174,53.29174 0 0 1 525.3552219726563,58.7323265576172 z" fill="#fff" id="svg_2"/><path d="M203.35476197265626,120.50000655761721 a4.0046,4.0046 0 0 1 -4,-4 v-8 a4,4 0 0 1 8,0 v8 A4.00458,4.00458 0 0 1 203.35476197265626,120.50000655761721 z" fill="#3f3d56" id="svg_3"/><path d="M203.35476197265626,161.5214865576172 a4.00458,4.00458 0 0 1 -4,-4 V135.5000065576172 a4,4 0 0 1 8,0 v22.02148 A4.00458,4.00458 0 0 1 203.35476197265626,161.5214865576172 z" fill="#3f3d56" id="svg_4"/><path d="M203.35476197265626,194.5000065576172 a4.00458,4.00458 0 0 1 -4,-4 V168.47851655761718 a4,4 0 0 1 8,0 v22.02149 A4.00459,4.00459 0 0 1 203.35476197265626,194.5000065576172 z" fill="#3f3d56" id="svg_5"/><path d="M531.3547619726562,176.49999655761718 a4.00458,4.00458 0 0 1 -4,-4 V118.76659655761716 a4,4 0 0 1 8,0 v53.7334 A4.00459,4.00459 0 0 1 531.3547619726562,176.49999655761718 z" fill="#3f3d56" id="svg_6"/><path d="M376.4472919726562,18.345796557617177 h-31 a2.5,2.5 0 0 1 0,-5 h31 a2.5,2.5 0 0 1 0,5 z" fill="#fff" id="svg_7"/><circle cx="392.4472961425781" cy="15.845800399780273" r="2" fill="#fff" id="svg_8"/><path d="M632.7520219726563,569.0172165576172 a3.56386,3.56386 0 0 0 2.52393,-6.20136 c-0.09328000000000003,-0.35630000000000006 -0.16020000000000004,-0.6121300000000001 -0.25341,-0.9684900000000001 a9.57474,9.57474 0 0 1 17.74853,-0.3364400000000001 c4.3177200000000004,9.84578 9.88142,20.028 7.26661,30.94266 c17.594,-38.22733 11.03667,-85.50774 -15.81028,-117.80022 c-7.37364,-3.97084 -13.38731,-11.09311 -15.01445,-19.41415 c3.6420000000000003,1.19546 8.14,-1.8004799999999999 5.3741200000000005,-5.59841 c-1.197,-1.45023 -2.40544,-2.88879 -3.60237,-4.33908 c13.65013,-14.81753 30.30051,8.10754 15.31045,28.074 a114.26474,114.26474 0 0 1 13.024,19.95056 a48.04337,48.04337 0 0 1 2.65565,-22.34156 c2.68222,-6.64885 7.77474,-12.27553 12.25158,-18.044 c5.443,-7.0286 16.81306,-3.91814 17.6387,4.92756 c-5.06867,1.71964 -5.65929,9.07055 0.16646000000000005,10.02035 c-1.36654,16.4835 -11.98172,31.72083 -26.73177,39.08466 a114.70965,114.70965 0 0 1 6.72483,47.88518 c2.43494,-19.011 22.77131,-23.8125 36.94436,-31.49419 a5.54912,5.54912 0 0 1 8.516,5.53977 a32.05053,32.05053 0 0 0 -5.58948,3.01718 a4.84411,4.84411 0 0 0 2.33454,8.82109 c-7.01111,17.83934 -25.46154,29.94947 -44.52854,30.06385 a117.92916,117.92916 0 0 1 -7.70134,23.201 l-28.29843,0.26948000000000005 c-0.10449000000000001,-0.31345000000000006 -0.19885000000000003,-0.6372300000000001 -0.29316000000000003,-0.9507800000000001 a32.15326,32.15326 0 0 0 7.82585,-0.5411 c-7.00816,-8.139 -12.40748,-12.27407 -8.48327,-23.76707 z" fill="#f2f2f2" id="svg_9"/><path d="M84.99681197265625,569.0172165576172 a3.56386,3.56386 0 0 1 -2.52393,-6.20136 c0.09328000000000003,-0.35630000000000006 0.16020000000000004,-0.6121300000000001 0.25341,-0.9684900000000001 a9.57474,9.57474 0 0 0 -17.74853,-0.3364400000000001 c-4.3177200000000004,9.84578 -9.88142,20.028 -7.26661,30.94266 c-17.594,-38.22733 -11.03667,-85.50774 15.81028,-117.80022 c7.37364,-3.97084 13.38731,-11.09311 15.01445,-19.41415 c-3.6420000000000003,1.19546 -8.14,-1.8004799999999999 -5.3741200000000005,-5.59841 c1.19705,-1.45023 2.40544,-2.88879 3.60237,-4.33908 c-13.65013,-14.81753 -30.30051,8.10754 -15.31045,28.074 a114.26474,114.26474 0 0 0 -13.024,19.95056 a48.04337,48.04337 0 0 0 -2.65565,-22.34156 c-2.68222,-6.64885 -7.77474,-12.27553 -12.25158,-18.044 c-5.443,-7.0286 -16.81306,-3.91814 -17.6387,4.92756 c5.06867,1.71964 5.65929,9.07055 -0.16646000000000005,10.02035 c1.36654,16.4835 11.98172,31.72083 26.73177,39.08466 a114.70965,114.70965 0 0 0 -6.72483,47.88518 c-2.43494,-19.011 -22.77131,-23.8125 -36.94436,-31.49419 a5.54912,5.54912 0 0 0 -8.516,5.53977 a32.05053,32.05053 0 0 1 5.58948,3.01718 a4.84411,4.84411 0 0 1 -2.33454,8.82109 c7.01111,17.83934 25.46154,29.94947 44.52854,30.06385 a117.92916,117.92916 0 0 0 7.70134,23.201 l28.29843,0.26948000000000005 c0.10449000000000001,-0.31345000000000006 0.19885000000000003,-0.6372300000000001 0.29316000000000003,-0.9507800000000001 a32.15326,32.15326 0 0 1 -7.82585,-0.5411 c7.00816,-8.139 12.40748,-12.27407 8.48327,-23.76707 z" fill="#f2f2f2" id="svg_10"/><path d="M278.94065197265627,29.073046557617175 h-27 a5,5 0 0 1 0,-10 h27 a5,5 0 0 1 0,10 z" fill="#e6e6e6" id="svg_11"/><circle cx="455.940673828125" cy="24.073049545288086" r="4.5" fill="#e6e6e6" id="svg_12"/><circle cx="469.940673828125" cy="24.073049545288086" r="4.5" fill="#e6e6e6" id="svg_13"/><circle cx="483.940673828125" cy="24.073049545288086" r="4.5" fill="#e6e6e6" id="svg_14"/><path d="M452.7943719726562,98.95712655761719 h-169.7 a12.41709,12.41709 0 0 0 -12.4,12.4 v110.31 a12.41711,12.41711 0 0 0 12.4,12.4 h169.7 a12.41069,12.41069 0 0 0 12.4,-12.4 v-110.31 A12.41068,12.41068 0 0 0 452.7943719726562,98.95712655761719 z" fill="#f2f2f2" id="svg_15"/><path d="M399.66711197265624,146.04889655761718 a791.404,791.404 0 0 1 -50.68162,78.41976 H322.37321197265624 q26.1465,-31.85316 52.33162,-63.70633 c5.008,-6.11445 10.443,-12.52 17.955,-15.00452 z" fill="#3f3d56" id="svg_16"/><path d="M364.3006519726563,141.7008865576172 c-2.77585,2.8922 -5.43512,5.90085 -7.93907,9.02608 c-5.51273,6.63847 -10.94773,13.33523 -16.40217,20.01255 c-3.39689,4.15383 -6.79379,8.30777 -10.15182,12.46172 a24.78863,24.78863 0 0 1 -3.02808,-2.29046 A27.16074,27.16074 0 0 1 361.4860219726562,139.13864655761716 A25.03515,25.03515 0 0 1 364.3006519726563,141.7008865576172 z" fill="#ed8936" id="svg_17" class="" fill-opacity="1"/><path d="M465.19440197265624,138.54709655761718 v4.03 l-1.8,-0.6600000000000001 l-25.33,-9.26 c-8.25,-3.01 -16.48,-6.45 -25,-8.620000000000001 a39.4016,39.4016 0 0 0 -22.64,0.29000000000000004 a51.94969,51.94969 0 0 0 -17.64,10.95 c-2.25,2.08 -4.43,4.21 -6.54,6.42 c-0.6900000000000002,0.7300000000000001 -1.3800000000000001,1.46 -2.06,2.19 c-2.04,2.22 -4.01,4.49 -5.88,6.84 c-5.51,6.640000000000001 -10.95,13.34 -16.4,20.01 c-3.4,4.16 -6.8,8.31 -10.16,12.46 q-16.83,20.595 -33.46,41.27 a19.53674,19.53674 0 0 1 -4.43,-0.56 q16.965,-21.075 34.09,-42.04 q0.39000000000000007,-0.48000000000000004 0.78,-0.9600000000000001 c1.34,-1.6700000000000002 2.71,-3.35 4.07,-5.02 q8.535,-10.455 17.08,-20.89 c4.14,-5.06 8.25,-10.14 12.71,-14.94 c0.27,-0.31000000000000005 0.55,-0.6100000000000001 0.8400000000000001,-0.92 c0.43000000000000005,-0.46 0.8600000000000001,-0.91 1.3,-1.3800000000000001 c9.69,-10.01 21.78,-18.86 36.26,-19.1 c8.52,-0.13 16.75,2.5700000000000003 24.67,5.42005 c8.53,3.09 17.03,6.23 25.55,9.35 z" fill="#3f3d56" id="svg_18"/><path d="M469.1845219726563,477.61822655761716 H266.52592197265625 a12.4134,12.4134 0 0 1 -12.39918,-12.39918 V437.9062965576172 a12.4134,12.4134 0 0 1 12.39918,-12.39918 H469.1845219726563 a12.4134,12.4134 0 0 1 12.39918,12.39918 v27.31275 A12.4134,12.4134 0 0 1 469.1845219726563,477.61822655761716 z" fill="#f2f2f2" id="svg_19"/><path d="M469.1845219726563,337.61822655761716 H266.52592197265625 a12.4134,12.4134 0 0 1 -12.39918,-12.39918 V297.90629655761717 a12.4134,12.4134 0 0 1 12.39918,-12.39918 H469.1845219726563 a12.4134,12.4134 0 0 1 12.39918,12.39918 v27.31275 A12.4134,12.4134 0 0 1 469.1845219726563,337.61822655761716 z" fill="#f2f2f2" id="svg_20"/><path d="M469.1845219726563,407.61822655761716 H266.52592197265625 a12.4134,12.4134 0 0 1 -12.39918,-12.39918 V367.9062965576172 a12.4134,12.4134 0 0 1 12.39918,-12.39918 H469.1845219726563 a12.4134,12.4134 0 0 1 12.39918,12.39918 v27.31275 A12.4134,12.4134 0 0 1 469.1845219726563,407.61822655761716 z" fill="#f2f2f2" id="svg_21"/><path d="M392.4765219726562,446.88812655761717 H332.7648419726562 a2.67117,2.67117 0 0 1 0,-5.34234 H392.4765219726562 a2.67117,2.67117 0 0 1 0,5.34234 z" fill="#fff" id="svg_22"/><path d="M449.9066419726563,461.57959655761715 H332.0970219726562 a2.67117,2.67117 0 0 1 0,-5.34234 h117.8096 a2.67117,2.67117 0 0 1 0,5.34234 z" fill="#fff" id="svg_23"/><circle cx="301.0420837402344" cy="451.56268310546875" r="17.90945053100586" fill="#fff" id="svg_24"/><path d="M297.0514019726562,475.7540665576172 a7.74428,7.74428 0 0 0 -10.20256,3.54711 a7.4313400000000005,7.4313400000000005 0 0 0 -0.43951000000000007,1.14687 l-26.96921,1.61166 l-3.997,13.97247 l36.7058,-6.20206 a7.7228,7.7228 0 0 0 8.48718,-4.10633 A7.39069,7.39069 0 0 0 297.2350219726562,475.84059655761723 Q297.1438119726563,475.79605655761713 297.0514019726562,475.7540665576172 z" fill="#ffb6b6" id="svg_25"/><path d="M237.52237197265623,406.8343465576172 l0,0 a13.37259,13.37259 0 0 0 -18.04487,9.16224 l-7.41461,29.9431 l1.39472,52.38373 s38.702,7.42638 45.19914,2.65273 s5.88706,-8.32722 6.4971,-4.77365 s3.39869,5.0447 3.43741,3.6310000000000002 s0.35417000000000004,-1.17209 1.97323,-1.5979100000000002 s8.76491,-3.05958 8.76491,-3.05958 l0.32000000000000006,-14.93516 s-11.81354,-4.47869 -14.67963,-3.14244 s0.6100000000000001,3.55357 -2.86608,1.33624 s-3.856,-9.21572 -4.45033,-2.90852 s-2.3343000000000003,7.48153 -4.94046,4.6770000000000005 s-14.68055,-1.01308 -14.68055,-1.01308 l7.68342,-58.22987 A13.37258,13.37258 0 0 0 237.52237197265623,406.8343465576172 z" fill="#ed8936" id="svg_26" class="" fill-opacity="1"/><polygon points="498.157 562.178 498.564 551.148 456.212 544.329 455.612 560.608 498.157 562.178" fill="#ffb6b6" id="svg_27"/><path d="M490.4690919726562,565.4988265576172 l-0.40158000000000005,-17.66077 l7.55,0.27858000000000005 l12.18888,-16.32676 a4.71924,4.71924 0 0 1 8.498,2.997 l-0.7741,20.97961 l-7.60155,3.34059 l7.416,1.6874900000000002 l-0.2918700000000001,7.91015 z" fill="#2f2e41" id="svg_28"/><path d="M259.79762197265626,587.4724165576172 L393.94075197265624,571.8736965576172 s57.92747,3.34588 71.51863,-5.49564 l14.332370000000001,-1.80941 l0.7768,-21.05266 s-8.76425,0.06463000000000002 -13.80315,-2.28315 s-1.5369000000000002,-5.2206 -6.34117,-2.39583 s-4.29677,3.1644900000000002 -8.01127,1.86626 s-174.05,-8.26107 -174.05,-8.26107 z" fill="#2f2e41" id="svg_29"/><polygon points="436.563 578.337 444.363 570.527 417.953 536.724 406.441 548.25 436.563 578.337" fill="#ffb6b6" id="svg_30"/><path d="M428.6682619726563,575.5429065576172 l11.717130000000001,-13.22018 l5.34542,5.33917 l20.03985,-3.6791400000000003 a4.71923,4.71923 0 0 1 4.19152,7.97679 l-14.83624,14.8536 l-7.84469,-2.721 l4.289,6.28091 l-5.59385,5.6004000000000005 z" fill="#2f2e41" id="svg_31"/><path d="M206.87439197265627,514.0071165576172 l1.33359,30.99956 c1.5699400000000001,36.49347 41.75932,58.58065 72.92311,39.52662 q0.86156,-0.5267700000000001 1.7288700000000001,-1.09132 s11.81428,-3.17271 11.45565,-8.19723 s2.52757,-7.4699 5.08175,-6.0997200000000005 S335.3934819726562,523.0545965576172 335.3934819726562,523.0545965576172 s69.48152,34.65878 84.80968,42.8177 l16.17348,-4.40663 s6.08708,2.87491 3.89443,-1.283 s-2.58585,-2.16655 -3.25951,-6.6967300000000005 s-2.3968800000000003,-10.14673 -3.44173,-9.91051 s-85.957,-59.1949 -85.957,-59.1949 s-13.83321,-14 -30.9928,-4.75634 c-0.35740000000000005,1.35782 -0.051850000000000014,1.40513 -0.051850000000000014,1.40513 l-56.68436,46.18863 l-8.00942,-15.21084 z" fill="#2f2e41" id="svg_32"/><path d="M244.97308197265625,400.10426655761717 l-24.30372,-11.390460000000001 l-7.2761,12.6606 s-19.54183,27.88665 -19.8253,48.00476 s3.18465,26.10071 3.18465,26.10071 s-8.42568,6.29921 -4.21284,10.14961 s13.53954,5.51181 6.37619,7.1811 s-5.348,18.56858 2.652,21.56858 s50.96418,2.97375 50.96418,2.97375 a7.65139,7.65139 0 0 1 1.88976,-7.53446 c3.33071,-3.3385800000000003 6.33071,-0.9429000000000001 3.33071,-6.14074 s-8,-2.1978400000000002 -4,-9.19784 s3.99854,-9.09184 3.99854,-9.09184 s8.15437,-15.51893 -4.12807,-32.35468 c-0.7486900000000002,-1.02624 -0.11917000000000003,-1.06581 -0.11917000000000003,-1.06581 l-9.918,-33.2357 z" fill="#ed8936" id="svg_33" class="" fill-opacity="1"/><path d="M205.80643197265624,352.2109765576172 c0.20559000000000002,5.13373 -3.02967,12.407 -4.6229000000000005,16.79273 c-1.70331,4.6889 5.67924,10.91292 10.40462,12.27588 a6.98917,6.98917 0 0 1 2.28864,-4.19665 a11.96706,11.96706 0 0 0 -0.08724000000000003,4.70808 l39.94785,9.09437 c7.18664,-8.32238 14.41277,-20.28686 12.83655,-34.71671 a14.03973,14.03973 0 0 0 -6.761,-14.00008 l-20.1955,-11.93054 c-8.59021,-1.95561 -19.408,-3.13636 -25.61265,2.17895 A24.57545,24.57545 0 0 0 205.80643197265624,352.2109765576172 z" fill="#2f2e41" id="svg_34"/><circle cx="241.513916015625" cy="363.4885559082031" r="23" fill="#ffb6b6" id="svg_35"/><path d="M214.56926197265625,351.2009265576172 l-1.10988,4.87526 l19.40355,4.41734 a7.15592,7.15592 0 0 1 2.38608,-5.21032 a12.19175,12.19175 0 0 0 0.13928000000000001,5.78523 c10.46445,5.872 19.89624,7.95233 28.35369,6.4549 a4.43086,4.43086 0 0 0 5.30385,-3.33675 v0 c3.40288,-14.94742 -5.51208,-30.22473 -20.38619,-33.93493 a27.99693,27.99693 0 0 0 -34.09038,20.94929 z" fill="#2f2e41" id="svg_36"/><path d="M225.91377197265626,319.0354365576172 c2.55851,-0.55537 5.26612,-0.42114 7.57949,-2.15411 l-1.51712,3.4824800000000002 a17.626,17.626 0 0 1 12.58531,1.2570000000000001 a6.7302,6.7302 0 0 1 2.8492,2.41205 a4.95656,4.95656 0 0 1 0.37479,4.26923 a4.64131,4.64131 0 0 1 -2.71808,2.58135 a8.96267,8.96267 0 0 1 -3.32585,0.34819000000000006 q-7.08317,-0.16500000000000004 -14.16625,-0.3301200000000001 a10.59127,10.59127 0 0 1 -5.22462,-1.01528 a5.21975,5.21975 0 0 1 -2.42395,-5.18324 C220.37710197265625,321.5372365576172 223.35528197265626,319.59073655761716 225.91377197265626,319.0354365576172 z" fill="#2f2e41" id="svg_37"/><path d="M350.67863197265626,499.2956765576172 a0.98062,0.98062 0 0 0 -0.18816000000000002,-0.17287 a2.01234,2.01234 0 0 0 -0.6161400000000001,-0.48219 l-1.6832000000000003,-0.90095 l-11.17325,-12.4049 a2.80646,2.80646 0 0 0 -2.09816,-0.20070000000000002 l-0.02874,0.008700000000000003 l-4.78642,1.48028 l-4.11644,1.27747 l-5.75023,1.78243 L281.0717519726562,501.81059655761715 l-25.7448,7.97084 a2.785,2.785 0 0 0 -1.8295,3.448 a2.89846,2.89846 0 0 0 0.5878400000000001,1.04447 l0.81928,0.91173 l1.71831,1.9142700000000001 l3.98114,8.25041 l1.10458,1.23285 a2.775,2.775 0 0 0 2.86591,0.8041400000000001 L349.3891219726562,503.8025965576172 a2.82416,2.82416 0 0 0 1.28951,-4.5069099999999995 z" fill="#ccc" id="svg_38"/><path d="M345.6431419726563,376.5902965576172 l-1.64243,0.2662 a1.72823,1.72823 0 0 0 -1.11942,0.6947100000000002 l-0.7237500000000001,1.01191 l-6.5272,16.32176 a1.7281400000000002,1.7281400000000002 0 0 0 -0.29667000000000004,1.28843 l0.7647000000000002,4.650370000000001 l-2.89028,83.00559 a1.7478600000000002,1.7478600000000002 0 0 0 0.6465400000000001,1.08405 l12.67291,16.95222 l0.29589000000000004,0.23506000000000002 l0.6382300000000001,0.49974 a1.7556800000000001,1.7556800000000001 0 0 0 1.14665,0.36459 l1.077,-0.051330000000000015 a1.7301600000000001,1.7301600000000001 0 0 0 1.26549,-0.6452600000000001 a1.7038900000000001,1.7038900000000001 0 0 0 0.35943,-1.36986 L347.6337219726563,378.01039655761724 a1.7247700000000001,1.7247700000000001 0 0 0 -1.98213,-1.42151 z" fill="#ccc" id="svg_39"/><polygon points="342.893 383.04 337.111 400.653 334.874 471.007 343.874 479.007 342.893 383.04" fill="#ed8936" id="svg_40" class="" fill-opacity="1"/><path d="M298.1797319726562,490.3565965576172 a7.74428,7.74428 0 0 0 -10.20256,3.54712 a7.43055,7.43055 0 0 0 -0.43951000000000007,1.14687 l-26.96922,1.61166 l-3.997,13.97246 l36.70579,-6.20206 a7.7228,7.7228 0 0 0 8.48719,-4.10633 a7.3907,7.3907 0 0 0 -3.401,-9.88321 Q298.2721419726563,490.3985965576172 298.1797319726562,490.3565965576172 z" fill="#ffb6b6" id="svg_41"/><path d="M238.65070197265624,421.4368765576172 l0,0 a13.37258,13.37258 0 0 0 -18.04487,9.16225 l-7.41461,29.94309 l1.3947100000000001,52.38373 s38.70206,7.42639 45.19915,2.65274 s5.88706,-8.32722 6.4971,-4.77365 s3.39869,5.04469 3.43741,3.6310000000000002 s0.35416000000000003,-1.1721 1.97323,-1.5979200000000002 s8.76491,-3.05957 8.76491,-3.05957 l0.32000000000000006,-14.93517 s-11.81354,-4.47868 -14.67963,-3.14244 s0.6100000000000001,3.55357 -2.86608,1.33624 s-3.856,-9.21572 -4.45033,-2.9085099999999997 s-2.3343000000000003,7.48152 -4.94046,4.6770000000000005 s-14.68055,-1.01309 -14.68055,-1.01309 l7.68342,-58.22986 A13.3726,13.3726 0 0 0 238.65070197265624,421.4368765576172 z" fill="#6c63ff" id="svg_42" class=""/><path d="M238.65070197265624,421.4368765576172 l0,0 a13.37258,13.37258 0 0 0 -18.04487,9.16225 l-7.41461,29.94309 l1.3947100000000001,52.38373 s38.70206,7.42639 45.19915,2.65274 s5.88706,-8.32722 6.4971,-4.77365 s3.39869,5.04469 3.43741,3.6310000000000002 s0.3541600000000001,-1.1721 1.97323,-1.5979200000000002 s8.76491,-3.05957 8.76491,-3.05957 l0.3200000000000001,-14.93517 s-11.81354,-4.47868 -14.67963,-3.14244 s0.6100000000000002,3.55357 -2.86608,1.33624 s-3.856,-9.21572 -4.45033,-2.9085099999999997 s-2.3343000000000003,7.48152 -4.94046,4.6770000000000005 s-14.68055,-1.01309 -14.68055,-1.01309 l7.68342,-58.22986 A13.3726,13.3726 0 0 0 238.65070197265624,421.4368765576172 z" fill="#ed8936" class="" id="svg_52" fill-opacity="1" stroke-opacity="1" stroke="#ed8936"/><path d="M631.1845219726563,337.61822655761716 H428.5259219726563 a12.4134,12.4134 0 0 1 -12.39918,-12.39918 V297.90629655761717 a12.4134,12.4134 0 0 1 12.39918,-12.39918 H631.1845219726563 a12.4134,12.4134 0 0 1 12.39918,12.39918 v27.31275 A12.4134,12.4134 0 0 1 631.1845219726563,337.61822655761716 z" fill="#e6e6e6" id="svg_44"/><path d="M554.4765219726562,306.88812655761717 H494.7648419726562 a2.67117,2.67117 0 1 1 0,-5.34234 H554.4765219726562 a2.67117,2.67117 0 1 1 0,5.34234 z" fill="#fff" id="svg_45"/><path d="M611.9066419726563,321.5795965576172 H494.0970219726562 a2.67117,2.67117 0 1 1 0,-5.34234 h117.8096 a2.67117,2.67117 0 0 1 0,5.34234 z" fill="#fff" id="svg_46"/><circle cx="463.0420837402344" cy="311.56268310546875" r="17.90945053100586" fill="#fff" id="svg_47"/><path d="M566.1845219726563,407.61822655761716 H363.5259219726563 a12.4134,12.4134 0 0 1 -12.39918,-12.39918 V367.9062965576172 a12.4134,12.4134 0 0 1 12.39918,-12.39918 H566.1845219726563 a12.4134,12.4134 0 0 1 12.39918,12.39918 v27.31275 A12.4134,12.4134 0 0 1 566.1845219726563,407.61822655761716 z" fill="#e6e6e6" id="svg_48"/><path d="M489.4765219726562,376.88812655761717 H429.7648419726562 a2.67117,2.67117 0 1 1 0,-5.34234 H489.4765219726562 a2.67117,2.67117 0 0 1 0,5.34234 z" fill="#fff" id="svg_49"/><path d="M546.9066419726563,391.57959655761715 H429.0970219726562 a2.67117,2.67117 0 0 1 0,-5.34234 h117.8096 a2.67117,2.67117 0 0 1 0,5.34234 z" fill="#fff" id="svg_50"/><circle cx="398.0420837402344" cy="381.56268310546875" r="17.90945053100586" fill="#fff" id="svg_51"/></g></svg>